<svg width="30" height="23" viewBox="0 0 30 23" fill="none" xmlns="http://www.w3.org/2000/svg">
<path fill-rule="evenodd" clip-rule="evenodd" d="M10 0C8.34315 0 7 1.34315 7 3V14C7 14.5523 7.44772 15 8 15H22C22.5523 15 23 14.5523 23 14V3C23 1.34315 21.6569 0 20 0H10ZM27 3C25.3431 3 24 4.34315 24 6V12C24 14.7614 21.7614 17 19 17H11C8.23858 17 6 14.7614 6 12V6C6 4.34315 4.65685 3 3 3C1.34315 3 0 4.34315 0 6V18C0 20.7614 2.23858 23 5 23H25C27.7614 23 30 20.7614 30 18V6C30 4.34315 28.6569 3 27 3Z" fill="black"/>
</svg>
